<svg width="39" height="39" viewBox="0 0 39 39" fill="none" xmlns="http://www.w3.org/2000/svg">
<path d="M33.8981 0.65332H5.1038C2.64856 0.65332 0.658203 2.62171 0.658203 5.04983V33.5232C0.658203 35.9513 2.64856 37.9197 5.1038 37.9197H33.8981C36.3533 37.9197 38.3437 35.9513 38.3437 33.5232V5.04983C38.3437 2.62171 36.3533 0.65332 33.8981 0.65332Z" fill="url(#paint0_linear_149_56)"/>
<path d="M17.0555 18.991C17.0555 18.991 19.4134 18.8245 19.4134 16.1964C19.4134 13.5683 17.4844 12.2852 15.0412 12.2852H7.00195V26.9735H15.0412C15.0412 26.9735 19.9478 27.1208 19.9478 22.6375C19.9478 22.6375 20.1634 18.991 17.0555 18.991ZM10.5433 14.8962H15.0344C15.0344 14.8962 16.128 14.8962 16.128 16.4248C16.128 17.9534 15.4858 18.1754 14.756 18.1754H10.5455L10.5433 14.8962ZM14.8323 24.3625H10.5455V20.4385H15.0367C15.0367 20.4385 16.6647 20.4171 16.6647 22.456C16.6692 24.1533 15.4791 24.3454 14.8346 24.3625H14.8323ZM26.4937 16.0234C20.5519 16.0234 20.5586 21.6661 20.5586 21.6661C20.5586 21.6661 20.1499 27.2809 26.4937 27.2809C26.4937 27.2809 31.7798 27.567 31.7798 23.3761H29.0627C29.0627 23.3761 29.1525 24.956 26.5925 24.956C26.5925 24.956 23.8731 25.1289 23.8731 22.3941H31.8786C31.8786 22.3941 32.7477 16.0234 26.4937 16.0234ZM28.91 20.4385H23.8349C23.8349 20.4385 24.1673 18.1754 26.5543 18.1754C28.9414 18.1754 28.91 20.4385 28.91 20.4385ZM23.1702 13.1519H29.5432V14.9602H23.1702V13.1519Z" fill="white"/>
<defs>
<linearGradient id="paint0_linear_149_56" x1="19.5009" y1="0.65332" x2="19.5009" y2="37.9227" gradientUnits="userSpaceOnUse">
<stop stop-color="#005CFF"/>
<stop offset="1" stop-color="#0047AD"/>
</linearGradient>
</defs>
</svg>
