<svg width="231" height="96" viewBox="0 0 231 96" fill="none" xmlns="http://www.w3.org/2000/svg">
<g clip-path="url(#clip0_224_186)">
<path d="M54.1668 63.9756C53.8881 64.2175 53.6928 64.5158 53.6007 64.84C53.5087 65.1642 53.5231 65.5026 53.6427 65.8207C54.3607 76.517 61.1787 63.137 64.7423 60.6252C74.233 64.5347 84.9867 61.537 94.7709 59.1887C96.7256 58.2598 103.009 58.0619 102.108 55.576C102.019 55.4622 101.959 55.3349 101.931 55.2018C101.904 55.0686 101.909 54.9322 101.946 54.8007C101.984 54.6692 102.053 54.5452 102.15 54.4361C102.247 54.3269 102.37 54.2349 102.511 54.1653C104.251 52.6944 116.661 49.1806 116.184 52.6729C114.46 60.2898 113.695 68.612 116.184 76.1643L116.97 75.9579C117.201 76.8181 116.446 77.7127 115.319 77.2912C114.397 76.1557 114.124 74.5859 113.569 73.2784C112.573 67.5454 113.244 61.6962 113.747 55.9459C113.862 52.3116 116.367 52.0751 110.498 52.746C99.9328 54.0922 107.878 57.3652 97.5851 59.6274C86.344 62.1736 75.8104 65.3261 64.8523 62.2639C61.2363 65.9712 53.8471 77.7084 52.1282 66.3712C47.0658 73.0634 41.8461 79.7556 35.5941 85.8155C30.1963 92.6023 22.6289 96.6408 13.9347 90.4734C-3.91995 77.9492 13.3059 52.7245 22.6708 39.5251C33.5974 23.0097 52.3326 9.763 75.1973 6.27069C85.6784 4.8901 100.981 2.04722 108.396 9.98235C112.489 21.8012 68.5365 46.3979 57.6832 54.4965C55.7966 52.5482 61.1472 51.0558 62.4679 49.6322C70.4283 44.2647 78.5774 39.0907 86.606 33.7877C106.043 19.5948 123.248 2.95901 82.1515 6.26208C48.0457 9.35872 26.2554 31.7491 13.8195 56.2641C10.0829 64.2896 6.22584 73.115 8.6994 81.7555C10.5598 87.1402 16.3873 91.9572 23.373 92.3615C30.2487 91.4626 34.3783 85.4112 38.7542 81.42C47.6632 71.1925 53.2654 66.1304 52.7518 52.9439C52.8409 52.2944 54.1196 52.2428 54.717 52.1998C55.2416 52.3766 55.6916 52.6757 56.0114 53.06C59.1191 54.118 52.4059 63.3434 54.1668 63.9756ZM53.606 59.2447H53.6532C53.6532 59.6059 53.5589 59.9758 53.889 60.264C54.4131 58.9049 55.414 57.1114 55.1101 55.6964C54.3397 55.0599 55.3826 54.6255 55.3302 53.8901C54.3659 53.5804 54.2821 55.5287 53.868 56.105C53.2811 57.1028 53.9414 58.1694 53.606 59.236V59.2447Z" fill="#00B6FF"/>
<path d="M133.834 51.2235C133.724 51.873 133.111 53.2105 133.101 54.2341C137.55 53.1546 141.313 50.4408 145.678 49.2537C150.561 48.5297 155.362 47.4738 160.032 46.0969C160.488 45.9721 160.808 45.4603 161.19 45.2754C161.861 45.0862 162.558 45.3485 162.374 45.9807C160.897 51.7654 162.521 57.7093 164.02 63.3735C161.824 66.7755 160.194 53.2449 160.456 52.0794C160.645 44.3765 160.095 48.0237 152.658 49.0688C145.783 49.8042 139.803 52.2084 133.845 55.0126C132.797 55.3696 134.468 56.4147 133.363 56.8491C132.147 57.5028 131.79 55.4857 130.622 56.2599C128.793 57.3179 123.935 57.1802 126.382 54.5954C127.802 53.7309 133.635 46.9484 133.834 51.2235ZM127.813 56.0749C129.154 55.8599 131.319 55.5244 131.591 54.2857C131.418 53.632 133.3 50.187 131.403 51.6106C131.114 52.7804 126.136 55.4814 127.813 56.0749Z" fill="#00B6FF"/>
<path d="M219.34 33.2157C209.907 34.9705 200.363 36.2263 191.334 39.009C186.188 39.7144 174.695 46.4452 170.896 43.74C169.958 42.5142 173.767 42.282 174.349 42.8282C174.366 42.8815 174.398 42.9307 174.442 42.9719C174.487 43.0131 174.542 43.045 174.605 43.0652C174.667 43.0853 174.734 43.093 174.801 43.0877C174.868 43.0824 174.932 43.0642 174.989 43.0346C176.299 42.6046 177.605 42.1659 178.909 41.7186C188.205 38.5058 197.57 35.6629 207.527 34.149C209.718 34.2952 225.235 29.2546 219.895 33.934C219.68 33.7146 219.366 33.4867 219.34 33.2157Z" fill="#00B6FF"/>
<path d="M158.035 26.1021C159.031 26.3601 168.836 30.4545 163.873 29.9728C163.349 29.8438 162.857 30.1535 162.411 29.7105C161.552 28.8933 155.724 27.216 158.035 26.1021Z" fill="#00B6FF"/>
<path d="M134.903 57.4598C134.531 57.1416 134.568 56.9308 134.982 56.6599C135.302 56.9222 135.448 57.1329 135.108 57.4555L134.903 57.4598Z" fill="#00B6FF"/>
</g>
<defs>
<clipPath id="clip0_224_186">
<rect width="231" height="96" fill="white"/>
</clipPath>
</defs>
</svg>
